<mxfile host="Electron" modified="2023-11-07T08:26:41.446Z" agent="Mozilla/5.0 (Windows NT 10.0; Win64; x64) AppleWebKit/537.36 (KHTML, like Gecko) draw.io/22.0.3 Chrome/114.0.5735.289 Electron/25.8.4 Safari/537.36" etag="I65ZbyZtm7lJZgO6l5P0" version="22.0.3" type="device">
  <diagram name="PÃ¡gina-1" id="63-jCb5AKWxWhwP5LpQm">
    <mxGraphModel dx="1539" dy="827" grid="1" gridSize="10" guides="1" tooltips="1" connect="1" arrows="1" fold="1" page="1" pageScale="1" pageWidth="827" pageHeight="1169" math="0" shadow="0">
      <root>
        <mxCell id="0" />
        <mxCell id="1" parent="0" />
        <mxCell id="iCzlw-39iusHhkIWwTPf-2" value="matricula" style="ellipse;whiteSpace=wrap;html=1;align=center;" vertex="1" parent="1">
          <mxGeometry x="190" y="230" width="100" height="40" as="geometry" />
        </mxCell>
        <mxCell id="iCzlw-39iusHhkIWwTPf-3" value="numero de bastidor" style="ellipse;whiteSpace=wrap;html=1;align=center;" vertex="1" parent="1">
          <mxGeometry x="190" y="290" width="100" height="40" as="geometry" />
        </mxCell>
        <mxCell id="iCzlw-39iusHhkIWwTPf-5" value="color" style="ellipse;whiteSpace=wrap;html=1;align=center;" vertex="1" parent="1">
          <mxGeometry x="190" y="350" width="100" height="40" as="geometry" />
        </mxCell>
        <mxCell id="iCzlw-39iusHhkIWwTPf-6" value="marca" style="ellipse;whiteSpace=wrap;html=1;align=center;" vertex="1" parent="1">
          <mxGeometry x="190" y="410" width="100" height="40" as="geometry" />
        </mxCell>
        <mxCell id="iCzlw-39iusHhkIWwTPf-8" value="modelo" style="ellipse;whiteSpace=wrap;html=1;align=center;" vertex="1" parent="1">
          <mxGeometry x="190" y="470" width="100" height="40" as="geometry" />
        </mxCell>
        <mxCell id="iCzlw-39iusHhkIWwTPf-10" value="garaje" style="whiteSpace=wrap;html=1;align=center;" vertex="1" parent="1">
          <mxGeometry x="390" y="120" width="100" height="40" as="geometry" />
        </mxCell>
        <mxCell id="iCzlw-39iusHhkIWwTPf-12" value="motocicleta" style="whiteSpace=wrap;html=1;align=center;" vertex="1" parent="1">
          <mxGeometry x="90" y="120" width="100" height="40" as="geometry" />
        </mxCell>
        <mxCell id="iCzlw-39iusHhkIWwTPf-14" value="" style="endArrow=none;html=1;rounded=0;exitX=1;exitY=0.5;exitDx=0;exitDy=0;" edge="1" parent="1" source="iCzlw-39iusHhkIWwTPf-12" target="iCzlw-39iusHhkIWwTPf-10">
          <mxGeometry relative="1" as="geometry">
            <mxPoint x="290" y="430" as="sourcePoint" />
            <mxPoint x="450" y="430" as="targetPoint" />
          </mxGeometry>
        </mxCell>
        <mxCell id="iCzlw-39iusHhkIWwTPf-13" value="es guardada" style="shape=rhombus;perimeter=rhombusPerimeter;whiteSpace=wrap;html=1;align=center;" vertex="1" parent="1">
          <mxGeometry x="240" y="120" width="90" height="40" as="geometry" />
        </mxCell>
        <mxCell id="iCzlw-39iusHhkIWwTPf-15" value="" style="endArrow=none;html=1;rounded=0;exitX=0.41;exitY=0.975;exitDx=0;exitDy=0;exitPerimeter=0;entryX=0;entryY=0.25;entryDx=0;entryDy=0;entryPerimeter=0;" edge="1" parent="1" source="iCzlw-39iusHhkIWwTPf-12" target="iCzlw-39iusHhkIWwTPf-2">
          <mxGeometry relative="1" as="geometry">
            <mxPoint x="280" y="410" as="sourcePoint" />
            <mxPoint x="440" y="410" as="targetPoint" />
            <Array as="points">
              <mxPoint x="131" y="240" />
            </Array>
          </mxGeometry>
        </mxCell>
        <mxCell id="iCzlw-39iusHhkIWwTPf-16" value="" style="endArrow=none;html=1;rounded=0;exitX=0.44;exitY=1.05;exitDx=0;exitDy=0;exitPerimeter=0;entryX=0;entryY=0.5;entryDx=0;entryDy=0;" edge="1" parent="1" source="iCzlw-39iusHhkIWwTPf-12" target="iCzlw-39iusHhkIWwTPf-3">
          <mxGeometry relative="1" as="geometry">
            <mxPoint x="280" y="410" as="sourcePoint" />
            <mxPoint x="440" y="410" as="targetPoint" />
            <Array as="points">
              <mxPoint x="130" y="310" />
            </Array>
          </mxGeometry>
        </mxCell>
        <mxCell id="iCzlw-39iusHhkIWwTPf-17" value="" style="endArrow=none;html=1;rounded=0;exitX=0.44;exitY=1;exitDx=0;exitDy=0;exitPerimeter=0;entryX=0;entryY=0.5;entryDx=0;entryDy=0;" edge="1" parent="1" source="iCzlw-39iusHhkIWwTPf-12" target="iCzlw-39iusHhkIWwTPf-5">
          <mxGeometry relative="1" as="geometry">
            <mxPoint x="280" y="410" as="sourcePoint" />
            <mxPoint x="440" y="410" as="targetPoint" />
            <Array as="points">
              <mxPoint x="130" y="370" />
            </Array>
          </mxGeometry>
        </mxCell>
        <mxCell id="iCzlw-39iusHhkIWwTPf-18" value="" style="endArrow=none;html=1;rounded=0;exitX=0.43;exitY=0.975;exitDx=0;exitDy=0;exitPerimeter=0;entryX=0;entryY=0.5;entryDx=0;entryDy=0;" edge="1" parent="1" source="iCzlw-39iusHhkIWwTPf-12" target="iCzlw-39iusHhkIWwTPf-6">
          <mxGeometry relative="1" as="geometry">
            <mxPoint x="280" y="410" as="sourcePoint" />
            <mxPoint x="440" y="410" as="targetPoint" />
            <Array as="points">
              <mxPoint x="130" y="430" />
            </Array>
          </mxGeometry>
        </mxCell>
        <mxCell id="iCzlw-39iusHhkIWwTPf-19" value="" style="endArrow=none;html=1;rounded=0;exitX=0.41;exitY=1.025;exitDx=0;exitDy=0;exitPerimeter=0;entryX=0;entryY=0.5;entryDx=0;entryDy=0;" edge="1" parent="1" source="iCzlw-39iusHhkIWwTPf-12" target="iCzlw-39iusHhkIWwTPf-8">
          <mxGeometry relative="1" as="geometry">
            <mxPoint x="280" y="410" as="sourcePoint" />
            <mxPoint x="440" y="410" as="targetPoint" />
            <Array as="points">
              <mxPoint x="131" y="490" />
            </Array>
          </mxGeometry>
        </mxCell>
        <mxCell id="iCzlw-39iusHhkIWwTPf-20" value="fecha de entrada" style="ellipse;whiteSpace=wrap;html=1;align=center;" vertex="1" parent="1">
          <mxGeometry x="390" y="190" width="100" height="40" as="geometry" />
        </mxCell>
        <mxCell id="iCzlw-39iusHhkIWwTPf-23" value="" style="endArrow=none;html=1;rounded=0;entryX=0.5;entryY=0;entryDx=0;entryDy=0;" edge="1" parent="1" source="iCzlw-39iusHhkIWwTPf-10" target="iCzlw-39iusHhkIWwTPf-20">
          <mxGeometry relative="1" as="geometry">
            <mxPoint x="280" y="410" as="sourcePoint" />
            <mxPoint x="440" y="410" as="targetPoint" />
          </mxGeometry>
        </mxCell>
        <mxCell id="iCzlw-39iusHhkIWwTPf-24" value="agencia" style="whiteSpace=wrap;html=1;align=center;" vertex="1" parent="1">
          <mxGeometry x="-140" y="120" width="100" height="40" as="geometry" />
        </mxCell>
        <mxCell id="iCzlw-39iusHhkIWwTPf-26" value="" style="endArrow=none;html=1;rounded=0;exitX=1;exitY=0.5;exitDx=0;exitDy=0;entryX=0;entryY=0.5;entryDx=0;entryDy=0;" edge="1" parent="1" source="iCzlw-39iusHhkIWwTPf-24" target="iCzlw-39iusHhkIWwTPf-12">
          <mxGeometry relative="1" as="geometry">
            <mxPoint x="40" y="110" as="sourcePoint" />
            <mxPoint x="200" y="110" as="targetPoint" />
          </mxGeometry>
        </mxCell>
        <mxCell id="iCzlw-39iusHhkIWwTPf-25" value="es asignada" style="shape=rhombus;perimeter=rhombusPerimeter;whiteSpace=wrap;html=1;align=center;" vertex="1" parent="1">
          <mxGeometry x="-20" y="120" width="80" height="40" as="geometry" />
        </mxCell>
        <mxCell id="iCzlw-39iusHhkIWwTPf-28" value="nombre" style="ellipse;whiteSpace=wrap;html=1;align=center;" vertex="1" parent="1">
          <mxGeometry x="-210" y="190" width="100" height="40" as="geometry" />
        </mxCell>
        <mxCell id="iCzlw-39iusHhkIWwTPf-30" value="direccion" style="whiteSpace=wrap;html=1;align=center;" vertex="1" parent="1">
          <mxGeometry x="-300" y="260" width="100" height="40" as="geometry" />
        </mxCell>
        <mxCell id="iCzlw-39iusHhkIWwTPf-31" value="esta en" style="shape=rhombus;perimeter=rhombusPerimeter;whiteSpace=wrap;html=1;align=center;" vertex="1" parent="1">
          <mxGeometry x="-180" y="265" width="70" height="30" as="geometry" />
        </mxCell>
        <mxCell id="iCzlw-39iusHhkIWwTPf-33" value="telefono" style="ellipse;whiteSpace=wrap;html=1;align=center;" vertex="1" parent="1">
          <mxGeometry x="-210" y="320" width="100" height="40" as="geometry" />
        </mxCell>
        <mxCell id="iCzlw-39iusHhkIWwTPf-34" value="calle" style="ellipse;whiteSpace=wrap;html=1;align=center;" vertex="1" parent="1">
          <mxGeometry x="-610" y="330" width="100" height="40" as="geometry" />
        </mxCell>
        <mxCell id="iCzlw-39iusHhkIWwTPf-35" value="numero" style="ellipse;whiteSpace=wrap;html=1;align=center;" vertex="1" parent="1">
          <mxGeometry x="-500" y="330" width="100" height="40" as="geometry" />
        </mxCell>
        <mxCell id="iCzlw-39iusHhkIWwTPf-36" value="poblacion" style="ellipse;whiteSpace=wrap;html=1;align=center;" vertex="1" parent="1">
          <mxGeometry x="-380" y="330" width="100" height="40" as="geometry" />
        </mxCell>
        <mxCell id="iCzlw-39iusHhkIWwTPf-37" value="" style="endArrow=none;html=1;rounded=0;entryX=0;entryY=0.5;entryDx=0;entryDy=0;exitX=0.5;exitY=0;exitDx=0;exitDy=0;" edge="1" parent="1" source="iCzlw-39iusHhkIWwTPf-34" target="iCzlw-39iusHhkIWwTPf-30">
          <mxGeometry relative="1" as="geometry">
            <mxPoint x="-590" y="110" as="sourcePoint" />
            <mxPoint x="-430" y="110" as="targetPoint" />
            <Array as="points">
              <mxPoint x="-560" y="280" />
            </Array>
          </mxGeometry>
        </mxCell>
        <mxCell id="iCzlw-39iusHhkIWwTPf-38" value="" style="endArrow=none;html=1;rounded=0;entryX=0;entryY=0.5;entryDx=0;entryDy=0;exitX=0.5;exitY=0;exitDx=0;exitDy=0;" edge="1" parent="1" source="iCzlw-39iusHhkIWwTPf-35" target="iCzlw-39iusHhkIWwTPf-30">
          <mxGeometry relative="1" as="geometry">
            <mxPoint x="-590" y="110" as="sourcePoint" />
            <mxPoint x="-430" y="110" as="targetPoint" />
            <Array as="points">
              <mxPoint x="-450" y="280" />
            </Array>
          </mxGeometry>
        </mxCell>
        <mxCell id="iCzlw-39iusHhkIWwTPf-39" value="" style="endArrow=none;html=1;rounded=0;entryX=0;entryY=0.5;entryDx=0;entryDy=0;exitX=0.5;exitY=0;exitDx=0;exitDy=0;" edge="1" parent="1" source="iCzlw-39iusHhkIWwTPf-36" target="iCzlw-39iusHhkIWwTPf-30">
          <mxGeometry relative="1" as="geometry">
            <mxPoint x="-590" y="110" as="sourcePoint" />
            <mxPoint x="-430" y="110" as="targetPoint" />
            <Array as="points">
              <mxPoint x="-330" y="280" />
            </Array>
          </mxGeometry>
        </mxCell>
        <mxCell id="iCzlw-39iusHhkIWwTPf-40" value="" style="endArrow=none;html=1;rounded=0;entryX=0.5;entryY=1;entryDx=0;entryDy=0;exitX=1;exitY=0.5;exitDx=0;exitDy=0;" edge="1" parent="1" source="iCzlw-39iusHhkIWwTPf-33" target="iCzlw-39iusHhkIWwTPf-24">
          <mxGeometry relative="1" as="geometry">
            <mxPoint x="-350" y="110" as="sourcePoint" />
            <mxPoint x="-190" y="110" as="targetPoint" />
            <Array as="points">
              <mxPoint x="-90" y="340" />
            </Array>
          </mxGeometry>
        </mxCell>
        <mxCell id="iCzlw-39iusHhkIWwTPf-41" value="" style="endArrow=none;html=1;rounded=0;entryX=0.5;entryY=1;entryDx=0;entryDy=0;exitX=1;exitY=0.5;exitDx=0;exitDy=0;" edge="1" parent="1" source="iCzlw-39iusHhkIWwTPf-28" target="iCzlw-39iusHhkIWwTPf-24">
          <mxGeometry relative="1" as="geometry">
            <mxPoint x="-350" y="110" as="sourcePoint" />
            <mxPoint x="-190" y="110" as="targetPoint" />
            <Array as="points">
              <mxPoint x="-90" y="210" />
            </Array>
          </mxGeometry>
        </mxCell>
        <mxCell id="iCzlw-39iusHhkIWwTPf-42" value="" style="endArrow=none;html=1;rounded=0;entryX=0.5;entryY=1;entryDx=0;entryDy=0;exitX=1;exitY=0.5;exitDx=0;exitDy=0;" edge="1" parent="1" source="iCzlw-39iusHhkIWwTPf-31" target="iCzlw-39iusHhkIWwTPf-24">
          <mxGeometry relative="1" as="geometry">
            <mxPoint x="-350" y="110" as="sourcePoint" />
            <mxPoint x="-190" y="110" as="targetPoint" />
            <Array as="points">
              <mxPoint x="-90" y="280" />
            </Array>
          </mxGeometry>
        </mxCell>
        <mxCell id="iCzlw-39iusHhkIWwTPf-43" value="" style="endArrow=none;html=1;rounded=0;entryX=0;entryY=0.5;entryDx=0;entryDy=0;exitX=1;exitY=0.5;exitDx=0;exitDy=0;" edge="1" parent="1" source="iCzlw-39iusHhkIWwTPf-30" target="iCzlw-39iusHhkIWwTPf-31">
          <mxGeometry relative="1" as="geometry">
            <mxPoint x="-350" y="110" as="sourcePoint" />
            <mxPoint x="-190" y="110" as="targetPoint" />
          </mxGeometry>
        </mxCell>
        <mxCell id="iCzlw-39iusHhkIWwTPf-44" value="nombre" style="ellipse;whiteSpace=wrap;html=1;align=center;" vertex="1" parent="1">
          <mxGeometry x="540" y="190" width="100" height="40" as="geometry" />
        </mxCell>
        <mxCell id="iCzlw-39iusHhkIWwTPf-45" value="direccion" style="whiteSpace=wrap;html=1;align=center;" vertex="1" parent="1">
          <mxGeometry x="680" y="190" width="100" height="40" as="geometry" />
        </mxCell>
        <mxCell id="iCzlw-39iusHhkIWwTPf-46" value="calle" style="ellipse;whiteSpace=wrap;html=1;align=center;" vertex="1" parent="1">
          <mxGeometry x="620" y="300" width="100" height="40" as="geometry" />
        </mxCell>
        <mxCell id="iCzlw-39iusHhkIWwTPf-47" value="numero" style="ellipse;whiteSpace=wrap;html=1;align=center;" vertex="1" parent="1">
          <mxGeometry x="740" y="300" width="100" height="40" as="geometry" />
        </mxCell>
        <mxCell id="iCzlw-39iusHhkIWwTPf-48" value="" style="endArrow=none;html=1;rounded=0;exitX=1;exitY=0.5;exitDx=0;exitDy=0;entryX=0.5;entryY=0;entryDx=0;entryDy=0;" edge="1" parent="1" source="iCzlw-39iusHhkIWwTPf-10" target="iCzlw-39iusHhkIWwTPf-44">
          <mxGeometry relative="1" as="geometry">
            <mxPoint x="460" y="110" as="sourcePoint" />
            <mxPoint x="620" y="110" as="targetPoint" />
            <Array as="points">
              <mxPoint x="590" y="140" />
            </Array>
          </mxGeometry>
        </mxCell>
        <mxCell id="iCzlw-39iusHhkIWwTPf-49" value="" style="endArrow=none;html=1;rounded=0;exitX=1;exitY=0.5;exitDx=0;exitDy=0;" edge="1" parent="1" source="iCzlw-39iusHhkIWwTPf-10" target="iCzlw-39iusHhkIWwTPf-50">
          <mxGeometry relative="1" as="geometry">
            <mxPoint x="460" y="110" as="sourcePoint" />
            <mxPoint x="680" y="140" as="targetPoint" />
          </mxGeometry>
        </mxCell>
        <mxCell id="iCzlw-39iusHhkIWwTPf-50" value="esta en&amp;nbsp;" style="shape=rhombus;perimeter=rhombusPerimeter;whiteSpace=wrap;html=1;align=center;" vertex="1" parent="1">
          <mxGeometry x="695" y="125" width="70" height="30" as="geometry" />
        </mxCell>
        <mxCell id="iCzlw-39iusHhkIWwTPf-51" value="" style="endArrow=none;html=1;rounded=0;entryX=0.5;entryY=1;entryDx=0;entryDy=0;exitX=0.5;exitY=0;exitDx=0;exitDy=0;" edge="1" parent="1" source="iCzlw-39iusHhkIWwTPf-45" target="iCzlw-39iusHhkIWwTPf-50">
          <mxGeometry relative="1" as="geometry">
            <mxPoint x="460" y="110" as="sourcePoint" />
            <mxPoint x="620" y="110" as="targetPoint" />
          </mxGeometry>
        </mxCell>
        <mxCell id="iCzlw-39iusHhkIWwTPf-53" value="" style="endArrow=none;html=1;rounded=0;entryX=0.5;entryY=1;entryDx=0;entryDy=0;exitX=0.5;exitY=0;exitDx=0;exitDy=0;" edge="1" parent="1" source="iCzlw-39iusHhkIWwTPf-46" target="iCzlw-39iusHhkIWwTPf-45">
          <mxGeometry relative="1" as="geometry">
            <mxPoint x="460" y="110" as="sourcePoint" />
            <mxPoint x="620" y="110" as="targetPoint" />
          </mxGeometry>
        </mxCell>
        <mxCell id="iCzlw-39iusHhkIWwTPf-54" value="" style="endArrow=none;html=1;rounded=0;entryX=0.5;entryY=0;entryDx=0;entryDy=0;exitX=0.5;exitY=1;exitDx=0;exitDy=0;" edge="1" parent="1" source="iCzlw-39iusHhkIWwTPf-45" target="iCzlw-39iusHhkIWwTPf-47">
          <mxGeometry relative="1" as="geometry">
            <mxPoint x="460" y="110" as="sourcePoint" />
            <mxPoint x="620" y="110" as="targetPoint" />
          </mxGeometry>
        </mxCell>
        <mxCell id="iCzlw-39iusHhkIWwTPf-55" value="ciudad" style="whiteSpace=wrap;html=1;align=center;" vertex="1" parent="1">
          <mxGeometry x="900" y="190" width="100" height="40" as="geometry" />
        </mxCell>
        <mxCell id="iCzlw-39iusHhkIWwTPf-57" value="" style="endArrow=none;html=1;rounded=0;entryX=0;entryY=0.5;entryDx=0;entryDy=0;exitX=1;exitY=0.5;exitDx=0;exitDy=0;" edge="1" parent="1" source="iCzlw-39iusHhkIWwTPf-45" target="iCzlw-39iusHhkIWwTPf-55">
          <mxGeometry relative="1" as="geometry">
            <mxPoint x="630" y="110" as="sourcePoint" />
            <mxPoint x="790" y="110" as="targetPoint" />
          </mxGeometry>
        </mxCell>
        <mxCell id="iCzlw-39iusHhkIWwTPf-56" value="esta en" style="shape=rhombus;perimeter=rhombusPerimeter;whiteSpace=wrap;html=1;align=center;" vertex="1" parent="1">
          <mxGeometry x="800" y="190" width="80" height="40" as="geometry" />
        </mxCell>
        <mxCell id="iCzlw-39iusHhkIWwTPf-58" value="nombre" style="ellipse;whiteSpace=wrap;html=1;align=center;" vertex="1" parent="1">
          <mxGeometry x="1040" y="260" width="100" height="40" as="geometry" />
        </mxCell>
        <mxCell id="iCzlw-39iusHhkIWwTPf-59" value="codigo postal" style="ellipse;whiteSpace=wrap;html=1;align=center;" vertex="1" parent="1">
          <mxGeometry x="1040" y="320" width="100" height="40" as="geometry" />
        </mxCell>
        <mxCell id="iCzlw-39iusHhkIWwTPf-60" value="provincia" style="ellipse;whiteSpace=wrap;html=1;align=center;" vertex="1" parent="1">
          <mxGeometry x="1040" y="390" width="100" height="40" as="geometry" />
        </mxCell>
        <mxCell id="iCzlw-39iusHhkIWwTPf-61" value="numero de habitantes" style="ellipse;whiteSpace=wrap;html=1;align=center;" vertex="1" parent="1">
          <mxGeometry x="1040" y="450" width="100" height="40" as="geometry" />
        </mxCell>
        <mxCell id="iCzlw-39iusHhkIWwTPf-62" value="" style="endArrow=none;html=1;rounded=0;entryX=0;entryY=0.5;entryDx=0;entryDy=0;exitX=0.5;exitY=1;exitDx=0;exitDy=0;" edge="1" parent="1" source="iCzlw-39iusHhkIWwTPf-55" target="iCzlw-39iusHhkIWwTPf-58">
          <mxGeometry relative="1" as="geometry">
            <mxPoint x="780" y="110" as="sourcePoint" />
            <mxPoint x="940" y="110" as="targetPoint" />
            <Array as="points">
              <mxPoint x="950" y="280" />
            </Array>
          </mxGeometry>
        </mxCell>
        <mxCell id="iCzlw-39iusHhkIWwTPf-63" value="" style="endArrow=none;html=1;rounded=0;entryX=0.03;entryY=0.35;entryDx=0;entryDy=0;entryPerimeter=0;exitX=0.5;exitY=1;exitDx=0;exitDy=0;" edge="1" parent="1" source="iCzlw-39iusHhkIWwTPf-55" target="iCzlw-39iusHhkIWwTPf-59">
          <mxGeometry relative="1" as="geometry">
            <mxPoint x="780" y="110" as="sourcePoint" />
            <mxPoint x="940" y="110" as="targetPoint" />
            <Array as="points">
              <mxPoint x="950" y="334" />
            </Array>
          </mxGeometry>
        </mxCell>
        <mxCell id="iCzlw-39iusHhkIWwTPf-64" value="" style="endArrow=none;html=1;rounded=0;entryX=0;entryY=0.5;entryDx=0;entryDy=0;exitX=0.5;exitY=1;exitDx=0;exitDy=0;" edge="1" parent="1" source="iCzlw-39iusHhkIWwTPf-55" target="iCzlw-39iusHhkIWwTPf-60">
          <mxGeometry relative="1" as="geometry">
            <mxPoint x="780" y="110" as="sourcePoint" />
            <mxPoint x="940" y="110" as="targetPoint" />
            <Array as="points">
              <mxPoint x="950" y="410" />
            </Array>
          </mxGeometry>
        </mxCell>
        <mxCell id="iCzlw-39iusHhkIWwTPf-65" value="" style="endArrow=none;html=1;rounded=0;entryX=0;entryY=0.5;entryDx=0;entryDy=0;exitX=0.5;exitY=1;exitDx=0;exitDy=0;" edge="1" parent="1" source="iCzlw-39iusHhkIWwTPf-55" target="iCzlw-39iusHhkIWwTPf-61">
          <mxGeometry relative="1" as="geometry">
            <mxPoint x="780" y="110" as="sourcePoint" />
            <mxPoint x="940" y="110" as="targetPoint" />
            <Array as="points">
              <mxPoint x="950" y="470" />
            </Array>
          </mxGeometry>
        </mxCell>
        <mxCell id="iCzlw-39iusHhkIWwTPf-68" value="clientes" style="whiteSpace=wrap;html=1;align=center;" vertex="1" parent="1">
          <mxGeometry x="440" y="760" width="100" height="40" as="geometry" />
        </mxCell>
        <mxCell id="iCzlw-39iusHhkIWwTPf-70" value="dni" style="ellipse;whiteSpace=wrap;html=1;align=center;" vertex="1" parent="1">
          <mxGeometry x="275" y="670" width="100" height="40" as="geometry" />
        </mxCell>
        <mxCell id="iCzlw-39iusHhkIWwTPf-71" value="nombre" style="ellipse;whiteSpace=wrap;html=1;align=center;" vertex="1" parent="1">
          <mxGeometry x="385" y="670" width="100" height="40" as="geometry" />
        </mxCell>
        <mxCell id="iCzlw-39iusHhkIWwTPf-72" value="primer apellido" style="ellipse;whiteSpace=wrap;html=1;align=center;" vertex="1" parent="1">
          <mxGeometry x="495" y="670" width="100" height="40" as="geometry" />
        </mxCell>
        <mxCell id="iCzlw-39iusHhkIWwTPf-73" value="telefono" style="ellipse;whiteSpace=wrap;html=1;align=center;" vertex="1" parent="1">
          <mxGeometry x="605" y="670" width="100" height="40" as="geometry" />
        </mxCell>
        <mxCell id="iCzlw-39iusHhkIWwTPf-74" value="" style="endArrow=none;html=1;rounded=0;exitX=0.5;exitY=1;exitDx=0;exitDy=0;" edge="1" parent="1" source="iCzlw-39iusHhkIWwTPf-71" target="iCzlw-39iusHhkIWwTPf-68">
          <mxGeometry relative="1" as="geometry">
            <mxPoint x="410" y="480" as="sourcePoint" />
            <mxPoint x="570" y="480" as="targetPoint" />
            <Array as="points">
              <mxPoint x="435" y="730" />
              <mxPoint x="490" y="730" />
            </Array>
          </mxGeometry>
        </mxCell>
        <mxCell id="iCzlw-39iusHhkIWwTPf-75" value="" style="endArrow=none;html=1;rounded=0;entryX=0.5;entryY=1;entryDx=0;entryDy=0;exitX=0.5;exitY=0;exitDx=0;exitDy=0;" edge="1" parent="1" source="iCzlw-39iusHhkIWwTPf-68" target="iCzlw-39iusHhkIWwTPf-72">
          <mxGeometry relative="1" as="geometry">
            <mxPoint x="410" y="480" as="sourcePoint" />
            <mxPoint x="570" y="480" as="targetPoint" />
            <Array as="points">
              <mxPoint x="490" y="730" />
              <mxPoint x="545" y="730" />
            </Array>
          </mxGeometry>
        </mxCell>
        <mxCell id="iCzlw-39iusHhkIWwTPf-76" value="" style="endArrow=none;html=1;rounded=0;entryX=0.5;entryY=1;entryDx=0;entryDy=0;" edge="1" parent="1" target="iCzlw-39iusHhkIWwTPf-73">
          <mxGeometry relative="1" as="geometry">
            <mxPoint x="540" y="730" as="sourcePoint" />
            <mxPoint x="570" y="480" as="targetPoint" />
            <Array as="points">
              <mxPoint x="655" y="730" />
            </Array>
          </mxGeometry>
        </mxCell>
        <mxCell id="iCzlw-39iusHhkIWwTPf-77" value="" style="endArrow=none;html=1;rounded=0;exitX=0.5;exitY=1;exitDx=0;exitDy=0;" edge="1" parent="1" source="iCzlw-39iusHhkIWwTPf-70">
          <mxGeometry relative="1" as="geometry">
            <mxPoint x="410" y="480" as="sourcePoint" />
            <mxPoint x="440" y="730" as="targetPoint" />
            <Array as="points">
              <mxPoint x="325" y="730" />
            </Array>
          </mxGeometry>
        </mxCell>
        <mxCell id="iCzlw-39iusHhkIWwTPf-78" value="codigo de cliente" style="ellipse;whiteSpace=wrap;html=1;align=center;" vertex="1" parent="1">
          <mxGeometry x="670" y="760" width="100" height="40" as="geometry" />
        </mxCell>
        <mxCell id="iCzlw-39iusHhkIWwTPf-79" value="" style="endArrow=none;html=1;rounded=0;entryX=0;entryY=0.5;entryDx=0;entryDy=0;exitX=1;exitY=0.5;exitDx=0;exitDy=0;" edge="1" parent="1" source="iCzlw-39iusHhkIWwTPf-68" target="iCzlw-39iusHhkIWwTPf-78">
          <mxGeometry relative="1" as="geometry">
            <mxPoint x="240" y="480" as="sourcePoint" />
            <mxPoint x="400" y="480" as="targetPoint" />
          </mxGeometry>
        </mxCell>
        <mxCell id="iCzlw-39iusHhkIWwTPf-86" value="seguro" style="whiteSpace=wrap;html=1;align=center;" vertex="1" parent="1">
          <mxGeometry x="440" y="900" width="100" height="40" as="geometry" />
        </mxCell>
        <mxCell id="iCzlw-39iusHhkIWwTPf-88" value="" style="endArrow=none;html=1;rounded=0;entryX=0.5;entryY=0;entryDx=0;entryDy=0;exitX=0.5;exitY=1;exitDx=0;exitDy=0;" edge="1" parent="1" source="iCzlw-39iusHhkIWwTPf-68" target="iCzlw-39iusHhkIWwTPf-86">
          <mxGeometry relative="1" as="geometry">
            <mxPoint x="490" y="810" as="sourcePoint" />
            <mxPoint x="580" y="720" as="targetPoint" />
          </mxGeometry>
        </mxCell>
        <mxCell id="iCzlw-39iusHhkIWwTPf-87" value="es cubierto" style="shape=rhombus;perimeter=rhombusPerimeter;whiteSpace=wrap;html=1;align=center;" vertex="1" parent="1">
          <mxGeometry x="450" y="830" width="80" height="40" as="geometry" />
        </mxCell>
        <mxCell id="iCzlw-39iusHhkIWwTPf-89" value="reserva" style="whiteSpace=wrap;html=1;align=center;" vertex="1" parent="1">
          <mxGeometry x="-50" y="760" width="100" height="40" as="geometry" />
        </mxCell>
        <mxCell id="iCzlw-39iusHhkIWwTPf-92" value="" style="endArrow=none;html=1;rounded=0;exitX=1;exitY=0.5;exitDx=0;exitDy=0;" edge="1" parent="1" source="iCzlw-39iusHhkIWwTPf-89" target="iCzlw-39iusHhkIWwTPf-68">
          <mxGeometry relative="1" as="geometry">
            <mxPoint y="800" as="sourcePoint" />
            <mxPoint x="440" y="780" as="targetPoint" />
            <Array as="points">
              <mxPoint x="90" y="780" />
            </Array>
          </mxGeometry>
        </mxCell>
        <mxCell id="iCzlw-39iusHhkIWwTPf-91" value="realiza" style="shape=rhombus;perimeter=rhombusPerimeter;whiteSpace=wrap;html=1;align=center;" vertex="1" parent="1">
          <mxGeometry x="180" y="765" width="80" height="30" as="geometry" />
        </mxCell>
        <mxCell id="iCzlw-39iusHhkIWwTPf-94" value="persona encargada" style="ellipse;whiteSpace=wrap;html=1;align=center;" vertex="1" parent="1">
          <mxGeometry x="-210" y="700" width="100" height="40" as="geometry" />
        </mxCell>
        <mxCell id="iCzlw-39iusHhkIWwTPf-95" value="" style="endArrow=none;html=1;rounded=0;entryX=0;entryY=0.5;entryDx=0;entryDy=0;exitX=0.5;exitY=1;exitDx=0;exitDy=0;" edge="1" parent="1" source="iCzlw-39iusHhkIWwTPf-94" target="iCzlw-39iusHhkIWwTPf-89">
          <mxGeometry relative="1" as="geometry">
            <mxPoint x="-230" y="420" as="sourcePoint" />
            <mxPoint x="-70" y="420" as="targetPoint" />
            <Array as="points">
              <mxPoint x="-160" y="780" />
            </Array>
          </mxGeometry>
        </mxCell>
        <mxCell id="iCzlw-39iusHhkIWwTPf-96" value="" style="endArrow=none;html=1;rounded=0;exitX=0.5;exitY=1;exitDx=0;exitDy=0;" edge="1" parent="1" source="iCzlw-39iusHhkIWwTPf-80" target="iCzlw-39iusHhkIWwTPf-89">
          <mxGeometry relative="1" as="geometry">
            <mxPoint x="100" y="164" as="sourcePoint" />
            <mxPoint x="55" y="555" as="targetPoint" />
            <Array as="points" />
          </mxGeometry>
        </mxCell>
        <mxCell id="iCzlw-39iusHhkIWwTPf-97" value="" style="endArrow=none;html=1;rounded=0;exitX=0.1;exitY=1.1;exitDx=0;exitDy=0;exitPerimeter=0;" edge="1" parent="1" source="iCzlw-39iusHhkIWwTPf-12" target="iCzlw-39iusHhkIWwTPf-80">
          <mxGeometry relative="1" as="geometry">
            <mxPoint x="100" y="164" as="sourcePoint" />
            <mxPoint x="3" y="760" as="targetPoint" />
            <Array as="points" />
          </mxGeometry>
        </mxCell>
        <mxCell id="iCzlw-39iusHhkIWwTPf-80" value="es reservada" style="shape=rhombus;perimeter=rhombusPerimeter;whiteSpace=wrap;html=1;align=center;" vertex="1" parent="1">
          <mxGeometry y="475" width="80" height="35" as="geometry" />
        </mxCell>
        <mxCell id="iCzlw-39iusHhkIWwTPf-99" value="" style="endArrow=none;html=1;rounded=0;entryX=0.5;entryY=0;entryDx=0;entryDy=0;" edge="1" parent="1" source="iCzlw-39iusHhkIWwTPf-24" target="iCzlw-39iusHhkIWwTPf-89">
          <mxGeometry relative="1" as="geometry">
            <mxPoint x="-230" y="420" as="sourcePoint" />
            <mxPoint x="-70" y="420" as="targetPoint" />
            <Array as="points">
              <mxPoint x="-60" y="510" />
            </Array>
          </mxGeometry>
        </mxCell>
        <mxCell id="iCzlw-39iusHhkIWwTPf-98" value="es agencida por" style="shape=rhombus;perimeter=rhombusPerimeter;whiteSpace=wrap;html=1;align=center;" vertex="1" parent="1">
          <mxGeometry x="-110" y="468.75" width="100" height="47.5" as="geometry" />
        </mxCell>
        <mxCell id="iCzlw-39iusHhkIWwTPf-100" value="precio" style="ellipse;whiteSpace=wrap;html=1;align=center;" vertex="1" parent="1">
          <mxGeometry x="-210" y="810" width="100" height="40" as="geometry" />
        </mxCell>
        <mxCell id="iCzlw-39iusHhkIWwTPf-101" value="pago" style="ellipse;whiteSpace=wrap;html=1;align=center;" vertex="1" parent="1">
          <mxGeometry x="-330" y="700" width="100" height="40" as="geometry" />
        </mxCell>
        <mxCell id="iCzlw-39iusHhkIWwTPf-102" value="fecha de inicio" style="ellipse;whiteSpace=wrap;html=1;align=center;" vertex="1" parent="1">
          <mxGeometry x="-330" y="810" width="100" height="40" as="geometry" />
        </mxCell>
        <mxCell id="iCzlw-39iusHhkIWwTPf-103" value="fecha de fin" style="ellipse;whiteSpace=wrap;html=1;align=center;" vertex="1" parent="1">
          <mxGeometry x="-450" y="700" width="100" height="40" as="geometry" />
        </mxCell>
        <mxCell id="iCzlw-39iusHhkIWwTPf-104" value="fehca de reserva" style="ellipse;whiteSpace=wrap;html=1;align=center;" vertex="1" parent="1">
          <mxGeometry x="-450" y="810" width="100" height="40" as="geometry" />
        </mxCell>
        <mxCell id="iCzlw-39iusHhkIWwTPf-105" value="" style="endArrow=none;html=1;rounded=0;exitX=0.5;exitY=1;exitDx=0;exitDy=0;" edge="1" parent="1" source="iCzlw-39iusHhkIWwTPf-101">
          <mxGeometry relative="1" as="geometry">
            <mxPoint x="-230" y="570" as="sourcePoint" />
            <mxPoint x="-160" y="780" as="targetPoint" />
            <Array as="points">
              <mxPoint x="-280" y="780" />
            </Array>
          </mxGeometry>
        </mxCell>
        <mxCell id="iCzlw-39iusHhkIWwTPf-106" value="" style="endArrow=none;html=1;rounded=0;exitX=0.5;exitY=0;exitDx=0;exitDy=0;" edge="1" parent="1" source="iCzlw-39iusHhkIWwTPf-102">
          <mxGeometry relative="1" as="geometry">
            <mxPoint x="-230" y="570" as="sourcePoint" />
            <mxPoint x="-160" y="780" as="targetPoint" />
            <Array as="points">
              <mxPoint x="-280" y="780" />
            </Array>
          </mxGeometry>
        </mxCell>
        <mxCell id="iCzlw-39iusHhkIWwTPf-107" value="" style="endArrow=none;html=1;rounded=0;exitX=0.5;exitY=1;exitDx=0;exitDy=0;" edge="1" parent="1" source="iCzlw-39iusHhkIWwTPf-103">
          <mxGeometry relative="1" as="geometry">
            <mxPoint x="-230" y="570" as="sourcePoint" />
            <mxPoint x="-280" y="780" as="targetPoint" />
            <Array as="points">
              <mxPoint x="-400" y="780" />
            </Array>
          </mxGeometry>
        </mxCell>
        <mxCell id="iCzlw-39iusHhkIWwTPf-108" value="" style="endArrow=none;html=1;rounded=0;exitX=0.5;exitY=0;exitDx=0;exitDy=0;" edge="1" parent="1" source="iCzlw-39iusHhkIWwTPf-104">
          <mxGeometry relative="1" as="geometry">
            <mxPoint x="-230" y="570" as="sourcePoint" />
            <mxPoint x="-280" y="780" as="targetPoint" />
            <Array as="points">
              <mxPoint x="-400" y="780" />
            </Array>
          </mxGeometry>
        </mxCell>
        <mxCell id="iCzlw-39iusHhkIWwTPf-109" value="" style="endArrow=none;html=1;rounded=0;exitX=0.5;exitY=0;exitDx=0;exitDy=0;entryX=0;entryY=0.5;entryDx=0;entryDy=0;" edge="1" parent="1" source="iCzlw-39iusHhkIWwTPf-100" target="iCzlw-39iusHhkIWwTPf-89">
          <mxGeometry relative="1" as="geometry">
            <mxPoint x="-230" y="570" as="sourcePoint" />
            <mxPoint x="-70" y="570" as="targetPoint" />
            <Array as="points">
              <mxPoint x="-160" y="780" />
            </Array>
          </mxGeometry>
        </mxCell>
      </root>
    </mxGraphModel>
  </diagram>
</mxfile>
